<svg xmlns="http://www.w3.org/2000/svg" viewBox="0 0 312.5 354.3241350445527" preserveAspectRatio="xMidYMid meet" class="css-5yjtbz" id="adbhddag"><defs id="SvgjsDefs1534"></defs><g id="SvgjsG1535" featurekey="rootContainer" transform="matrix(6.3004014813942035,0,0,6.3004014813942035,0.000046358657472104394,0.02629501308574099)" fill="#111"><path xmlns="http://www.w3.org/2000/svg" d="M23.11 55.78L1.69 43.41A3.39 3.39 0 0 1 0 40.48V15.75a3.39 3.39 0 0 1 1.69-2.94L23.11.45a3.39 3.39 0 0 1 3.39 0l21.41 12.37a3.39 3.39 0 0 1 1.69 2.94v24.72a3.39 3.39 0 0 1-1.69 2.94L26.5 55.78a3.39 3.39 0 0 1-3.39 0z"></path></g><g id="SvgjsG1536" featurekey="symbolFeature-0" transform="matrix(0.9139603093090518,0,0,0.9139603093090518,111.17938879067017,84.88191285829049)" fill="#fff"><path xmlns="http://www.w3.org/2000/svg" d="M35.6655731,24.5674229c-0.5362358-0.7641201-1.311264-1.3222313-2.1146049-1.7764168  c-0.5271149-0.2979965-1.1776199-0.4386425-1.7694111-0.6429348c-0.1081886-0.2712326-0.308712-0.5128536-0.5374279-0.6524563  c-0.7747288-0.4728432-1.545105-0.2223835-2.0459938,0.4841824c-0.137516,0.1940098-0.2012978,0.3875427-0.2117882,0.5757408  c-1.4999237,0.7436295-2.8610783,2.545393-3.8173733,3.5205688c-2.1235447,2.1654491-4.1419392,4.4321423-6.1711235,6.6852303  C14.9423428,37.2643242,10.81602,41.7815857,5.87533,45.3374901c-0.548038,0.394413-0.7855773,1.0469437-0.4379416,1.6702499  c4.6078377,8.2616005,8.195838,17.030262,10.7074919,26.1503105c0.1345348,0.4884567,0.6429348,0.9439392,1.1772022,0.8962555  c2.2221375-0.19841,4.428299-0.1236267,6.6238499,0.2820969c0.2648392,0.0489349,0.5384407,0.0150909,0.7813454-0.0825119  c0.3118095,0.2562408,0.6121159,0.5266342,0.905508,0.8130569c0.9154053,0.893837,2.2731018-0.0194321,2.0403919-1.1877594  c-1.6050129-8.0575027-3.0581436-16.1440926-4.36273-24.2555389c0.0057831-0.0275993,0.0122795-0.0544205,0.0166321-0.0835686  c0.0612164-0.4125671,0.0609779-0.7702446-0.0403557-1.099102c2.6796894-4.4922447,5.5856514-8.8417091,8.7160378-13.0335121  c1.6163979-2.1645241,3.8509331-4.277504,4.9157143-6.7833157C37.6088028,26.9996033,37.0985527,25.1390495,35.6655731,24.5674229z   M20.873127,49.7574997c1.0433826,6.5200729,2.184166,13.0238533,3.4216919,19.5096512  c-1.3569221-4.1990433-2.7137852-8.3981056-4.0707073-12.5971489c-0.8100166-2.5064545-1.619915-5.0129356-2.4298115-7.5193863  C18.8257618,49.3258171,19.8514996,49.528904,20.873127,49.7574997z M27.7649746,37.0914917  c-2.3628731,3.3097458-4.5722523,6.7276115-6.6510906,10.2223244c-0.9371014-0.2030258-1.877779-0.3850403-2.8233452-0.5431519  c0.4863434-0.4994278,0.9727478-0.9988403,1.4590912-1.4982681c1.0199566-1.0473785,2.0399132-2.094738,3.0598698-3.1421165  c1.6829796-1.7281609,3.3699532-3.4526863,5.0559731-5.1781387C27.8321514,36.9987259,27.7982349,37.0448761,27.7649746,37.0914917z   M33.2343292,27.9229946c-4.1145191,4.5283794-8.5621891,8.795393-12.8312149,13.1790867l-3.0599289,3.1421318  c-0.8483448,0.8711433-2.2382908,1.8801498-2.3568516,3.1912041c-0.1182632,1.3080711,0.5475616,2.654995,0.9433002,3.8796158  c0.4974308,1.539505,0.9949207,3.0789909,1.4924126,4.6184959c1.6957951,5.2478638,3.3916492,10.4957161,5.0874462,15.7435951  c-1.4220161-0.1565399-2.8479042-0.2052612-4.2826157-0.1286926c-2.4513903-8.6206207-5.8618765-16.9488792-10.1564732-24.8151703  c4.0388174-3.0556679,7.5772829-6.667347,10.9890804-10.4057541c1.8591824-2.037159,3.6860561-4.1034775,5.5593052-6.1278648  c0.9354324-1.0109119,1.887495-2.006115,2.8560104-2.9853897c0.2696686-0.2727222,2.5101051-2.6885853,2.6925659-2.5881615  c0.4768066,0.2624397,0.9356709,0.1823578,1.2754364-0.0659409c0.6865082,0.263916,1.4010353,0.6044865,1.8701515,1.0430107  c0.0462532,0.3488865,0.2313995,0.6975212,0.5222282,0.9289646C33.8783951,26.9365673,33.7119713,27.3973541,33.2343292,27.9229946z  "></path><path xmlns="http://www.w3.org/2000/svg" d="M73.0252914,24.1311798c-0.6276169-0.4312363-1.2552338-0.8624725-1.8829117-1.2937088  c-0.0929871-0.5477257-0.5929794-0.9884243-1.2097473-1.0443363c-4.2216339-0.3827305-8.4041672-1.0326843-12.5454521-1.9368515  c-1.2399712-0.2707253-1.9032326,1.2132664-1.3014259,1.9705143c-2.2785873,5.0727673-5.022831,9.9094715-7.7659454,14.741333  c-2.7845383,4.904789-5.4719772,9.8573112-7.9844055,14.907608c-4.9976158,10.0457039-9.3445492,20.4179764-13.0539722,31.0061722  c-0.2210865,0.6311188,0.2454662,1.3307419,0.8526363,1.5017014c1.5013542,0.4227524,2.9986534,0.8669968,4.5078735,1.2606201  c0.1834145,0.0478363,0.3654022,0.0793533,0.545475,0.0980148c0.0067978,0.19133,0.0699806,0.3941574,0.2056503,0.5993271  c1.400795,2.1182251,4.0199814,1.6098175,5.6094933,0.0168839c0.9328728-0.9349213,1.6224213-2.1872025,2.3382568-3.2854996  c0.9165344-1.4062958,1.7970085-2.8363876,2.6824875-4.2623596c3.5347137-5.6926193,6.9777451-11.4420624,10.339592-17.2384148  c6.72369-11.5928841,13.0861549-23.3946457,19.1003304-35.3707504C73.7789764,25.172699,73.6002655,24.526247,73.0252914,24.1311798  z M30.0339622,82.0084305c3.6057625-10.1477661,7.815834-20.0664368,12.6131096-29.7093964  c4.9545784-9.9592285,11.1299934-19.318428,15.6587296-29.4832153c0.0386887-0.0869236,0.0669403-0.1731472,0.0862541-0.2581482  c3.1562576,0.6362133,6.3387413,1.1253586,9.5393486,1.4749603C61.97612,34.3121643,56.0208397,44.591671,50.0654984,54.8712044  c-3.1761665,5.4825287-6.3523941,10.9650612-9.5286217,16.4475899l-4.64217,8.0129089  c-0.4072456,0.7029037-0.8144302,1.4057922-1.221611,2.1086731c-0.2997131,0.5173416-0.6168289,1.5799484-1.3820801,1.4495239  C32.2032852,82.7045364,31.1111431,82.3485107,30.0339622,82.0084305z M54.3528214,56.2929344  c-3.0122452,5.2784157-6.1020393,10.5124702-9.257164,15.7066917c-1.5318718,2.521843-3.0818672,5.0327835-4.6485481,7.5331573  c-0.4161263,0.6640778-3.8736458,6.7977829-4.945816,5.1764984c-0.0179443-0.027153-0.0371971-0.0515594-0.0562134-0.0765533  c0.1124802-0.1017532,0.2198372-0.213829,0.3208733-0.3372498c0.9018707-1.1013184,1.5252571-2.5029907,2.2369766-3.7314606  l2.6875572-4.6390762c3.339077-5.7636795,6.678215-11.5273666,10.0172882-17.2910423  c6.4757233-11.1779022,12.9515038-22.355793,19.427227-33.5336838c0.2352142,0.1615982,0.4704285,0.323225,0.7056427,0.4848232  C65.6084671,35.9604073,60.1122894,46.2005844,54.3528214,56.2929344z"></path><path xmlns="http://www.w3.org/2000/svg" d="M94.0749283,62.7201805c-0.633812-1.8909988-1.2395477-3.7884178-1.7939072-5.7043915  c-1.0656738-3.6828194-1.9334564-7.4214973-2.6422577-11.188694c-0.3403015-1.8084679-0.6285706-3.6263885-0.8853607-5.4484482  c-0.2455826-1.7428246-0.2433167-3.5931702-1.0102386-5.2050095c-0.6251144-1.3138542-2.2631454-1.9417381-3.5037766-2.4656181  c-1.7526016-0.7400818-3.5696411-1.2486744-5.4455719-1.5586834c-2.1939392-0.3625526-6.5610199-0.907402-6.6951981,2.4003811  c-0.0043488,0.1080093,0.0040512,0.2078667,0.021637,0.3010063c-0.0783844,0.1643982-0.1230927,0.3416595-0.1137924,0.5148659  c0.2324142,4.3325539,0.8097763,8.6361351,1.7229156,12.8776665c0.4766312,2.2136688,1.0693741,4.4011726,1.737999,6.5640907  c0.6612396,2.1391449,1.5665665,4.1929321,2.2404404,6.3225594c0.2446289,0.7732201-1.1569366,2.1225739-1.5662079,2.6794624  c-0.6377487,0.8677025-1.2831879,1.7297173-1.9316635,2.5894279c-1.4195709,1.8820114-2.8715744,3.7391968-4.344017,5.5801239  c-2.8826523,3.6041718-5.8705177,7.1236343-8.9407616,10.5691528c-0.5859489,0.6575699-0.4001503,1.8125381,0.538681,2.0403976  c2.3294907,0.5653992,4.6590385,1.1307983,6.9885292,1.6961823c0.4060516,0.0985413,0.8984756,0.0139923,1.1877594-0.313942  c0.0500717-0.0567474,0.1013336-0.1123962,0.1514587-0.1691132c2.3320541,1.0704193,4.8834076-0.2484131,6.8041077-1.9393692  c2.9993668-2.6406479,5.8748703-5.4370041,8.8062897-8.1530533c1.4311905-1.3260269,2.8623886-2.6520615,4.2935791-3.9780884  c1.3315887-1.2337723,2.9937668-2.4235687,4.0333328-3.9271622C94.6319733,65.4978104,94.5630646,64.1766052,94.0749283,62.7201805z   M71.8806915,72.3449478c1.4102097-1.7631531,2.7929459-3.5483017,4.1589279-5.3459091  c0.7445679-0.9798813,1.4795914-1.9670258,2.2102127-2.9573746c0.5997772-0.8130531,1.5289536-1.7448654,1.7854462-2.750843  c0.5039902-1.9766693-0.8693848-4.1506004-1.506958-5.9816017c-0.79422-2.281044-1.4605179-4.6052437-2.037529-6.9500694  c-1.064003-4.324131-1.7072983-8.7380028-1.9901962-13.1796112c0.2269821-0.1326714,0.4391327-0.2948341,0.6438828-0.4859848  c0.2452316,0.150898,0.5591888,0.202549,0.9250031,0.0853157c2.3294907-0.7466545,3.7989578,1.6152496,4.4109497,3.4964409  c0.7901688,2.4289474,1.1737518,5.0288048,1.7781754,7.5102844c1.2360382,5.0743752,2.6758194,10.0982475,4.2819595,15.0675049  c0.3553238,1.0994759,0.9620209,2.1350212,0.0468521,3.0848923c-0.8331451,0.8646812-1.7487259,1.6618614-2.6135788,2.4953346  c-1.8978729,1.8289337-3.7659378,3.6885605-5.6126556,5.5690384c-3.2965164,3.3568649-6.4983749,6.8058167-9.6243515,10.3218536  c-0.1254196,0.1000214-0.2331848,0.2195358-0.3154449,0.3518677c-0.021698,0.0245285-0.0438766,0.0486984-0.0656281,0.0732422  c-1.4401398-0.3495407-2.8803329-0.6990662-4.3204727-1.0486069C66.7195663,78.6406403,69.3379211,75.5241394,71.8806915,72.3449478  z M91.3438034,65.8593445c-2.1367798,2.2964706-4.6513519,4.3281555-6.952652,6.4603729  c-2.3852844,2.2100525-4.7706299,4.4201202-7.1559677,6.6301651c-1.1715469,1.0855026-3.6168518,4.0295486-5.6798325,3.8822327  c3.3003311-3.6686249,6.6863708-7.2585144,10.1670761-10.7572784c2.0775909-2.0883484,4.1923141-4.1395569,6.3332062-6.1628876  c0.7399139-0.6993103,1.4602814-1.5545807,1.5012894-2.6263695c0.0526962-1.3788147-0.539093-2.6949348-0.9530182-3.9853935  c-1.8368835-5.7267303-3.4110184-11.5365372-4.7557831-17.3978615c-0.5755157-2.5083771-0.9097443-5.3220482-2.5602341-7.4025116  c-0.092392-0.1164322-0.1891937-0.2291069-0.2890396-0.3388443c0.2986984,0.0744209,0.5194244,0.1336403,0.6212921,0.1652641  c1.2545166,0.3894501,2.7828751,0.8683434,3.7805405,1.7622871c0.8959122,0.8028221,0.7469482,3.0661316,0.892334,4.158886  c0.8039322,6.0400734,2.0679321,12.0065918,3.7615204,17.8593483c0.3836365,1.3257484,0.7976761,2.6425095,1.226799,3.9541435  C91.7368011,63.4529762,92.4787979,64.6395187,91.3438034,65.8593445z"></path></g><g id="SvgjsG1537" featurekey="nameFeature-0" transform="matrix(0.9715906542811195,0,0,0.9715906542811195,55.611362719048394,173.3797766643156)" fill="#fff"><path d="M3.12 30.28 l0 -2.4 c0 -3.92 -2.48 -1.72 -2.48 -4.16 c0 -3.16 9.36 -4.04 9.72 -4.04 c1.52 0 1.56 0.4 1.72 1.76 c0.04 0.48 0 1.4 0.68 1.4 c0.96 0 1.56 -3.16 5 -3.16 c2.68 0 4.44 2 4.44 4.64 c0 2.68 -2.28 4.8 -4.92 4.8 c-2.6 0 -3.32 -2.28 -4.36 -2.28 c-1.12 0 -0.92 2.68 -0.92 3.4 c0 1.2 0.12 2.88 0.32 4.4 c0.24 1.76 3.28 0.68 3.28 3.08 c0 2.52 -3.52 2.72 -7.92 2.72 c-1.84 0 -7.28 0.08 -7.28 -2.68 c0 -1.68 1.84 -1.68 2.28 -3.08 c0.32 -1 0.44 -3.28 0.44 -4.4 z M40.706 30.8 l-8.68 0 c-0.44 0 -1.08 -0.12 -1.08 0.56 c0 2 2.6 3.68 4.48 3.68 c3 0 4.48 -1.8 5.32 -1.8 s1.56 1.24 1.56 2 c0 3.08 -5.64 5.32 -9.24 5.32 c-7.2 0 -10.92 -5.2 -10.92 -10.36 c0 -6.16 5.24 -10.64 11.24 -10.64 c6.8 0 9.8 5.24 9.8 8.24 c0 2.64 -1.2 3 -2.48 3 z M33.146 26.96 c1.08 0 2.36 0.24 2.36 -1.2 s-0.88 -2.56 -2.36 -2.56 c-1.32 0 -2.4 1.36 -2.4 2.64 c0 1.44 1.36 1.12 2.4 1.12 z M43.412 30 c0 -5.76 5 -10.44 11.72 -10.44 c6 0 9.16 3.32 9.16 6.12 c0 2.24 -1.68 3.96 -3.92 3.96 c-4.32 0 -2.32 -4.96 -5.48 -4.96 c-1.76 0 -2.72 1.8 -2.72 3.4 c0 2.96 2.2 5.96 5.36 5.96 c2.52 0 3.36 -1.04 4.2 -1.04 c1.08 0 1.8 1.2 1.8 2.16 c0 2.36 -3.6 5.4 -9.2 5.4 c-6.04 0 -10.92 -4.44 -10.92 -10.56 z M75.518 40.56 c-5.92 0 -10.96 -3.48 -10.96 -9.8 c0 -7.16 6.28 -11.2 12.88 -11.2 c7 0 11 5.48 11 10.44 c0 6.56 -7.04 10.56 -12.92 10.56 z M79.238 33.04 c0 -1.8 -0.8 -8.76 -3.52 -8.76 c-1.32 0 -2.04 1.24 -1.96 2.4 c0.16 2.52 0.88 8.68 3.64 8.84 c1.52 0.08 1.84 -1.2 1.84 -2.48 z M90.944 32.519999999999996 l0 -3.68 c0 -2.56 -0.52 -3.28 -0.92 -3.64 c-0.52 -0.44 -1.08 -0.4 -1.08 -1.44 c0 -2.96 9.92 -4.08 10 -4.08 c1 0 1.08 0.88 1.08 1.72 c0 0.48 -0.16 1.84 0.68 1.84 c0.4 0 1.04 -0.88 2.16 -1.8 c1.12 -0.88 2.72 -1.76 5.08 -1.76 c4.76 0 4.8 3.56 5.64 3.56 c0.32 0 1.04 -0.88 2.2 -1.8 c1.2 -0.88 2.8 -1.76 4.84 -1.76 c3.8 0 6.16 2.08 6.16 6 l0 8.44 c0 2.32 1.48 2.52 1.48 3.68 c0 2.52 -4.56 2.64 -6.12 2.64 c-1.32 0 -5.96 -0.28 -5.96 -2.36 c0 -1.48 1.4 -1.44 1.4 -3.76 l0 -3.6 c0 -1.68 0.2 -5.04 -2.08 -5.04 c-2.24 0 -2.04 2.72 -2.04 4.2 l0 2.48 c0 4.92 1.44 4.08 1.44 5.56 c0 2.48 -4.8 2.52 -6.24 2.52 c-6.04 0 -6.36 -1.12 -6.32 -2.24 c0.04 -2.12 2.04 -0.44 1.92 -5.2 l0 -2.28 c0 -1.44 0.2 -5.04 -2.08 -5.04 c-2.24 0 -2.04 2.72 -2.04 4.2 l0 3.24 c0 3.68 1.08 3.44 1.08 4.88 c0 1.04 -0.92 2.44 -6.4 2.44 c-1.56 0 -6.28 0.04 -6.28 -2.08 c0 -1.8 2.4 -0.84 2.4 -5.84 z M145.09 30.560000000000002 c0 -1.92 -0.4 -5.08 -2.92 -5.08 c-1.44 0 -1.92 0.6 -1.92 7.88 c0 1.32 0.64 1.8 2.04 1.8 c2.48 0 2.8 -2.68 2.8 -4.6 z M131.21 34.28 l0 -2.2 c0 -4.2 -0.24 -5.12 -0.44 -5.32 c-0.52 -0.52 -2.68 0 -2.68 -2.28 c0 -2.72 8.24 -4.8 11.2 -4.8 c0.96 0 1.12 0.32 1.12 1.2 c0 0.28 0.04 0.84 0.44 0.84 c0.56 0 2.8 -2.16 6.08 -2.16 c5.24 0 8.04 5.24 8.04 9.92 c0 5.36 -3.8 11.08 -9.64 11.08 c-1.88 0 -3.76 -1 -4.12 -1 c-0.56 0 -0.64 0.84 -0.64 1.28 c0 3.04 2.48 2.08 2.48 4.04 c0 2.24 -3.64 2.52 -5.2 2.52 c-5.36 0 -9.56 -1.96 -9.56 -4 c0 -1.8 1.64 -1.12 2.36 -2.68 c0.4 -0.84 0.56 -2 0.56 -6.44 z M166.83599999999998 21.44 l0 11.16 c0 4.72 2.36 3 2.36 5.12 c0 2.72 -5.08 2.72 -6.88 2.72 c-6.88 0 -7.16 -1.56 -7.16 -2.52 c0 -1.44 1.64 -1.52 2.12 -2.76 c0.52 -1.4 0.6 -7.2 0.16 -8.68 c-0.36 -1.4 -2.4 -0.96 -2.4 -2.76 c0 -2.84 10.16 -4.04 10.56 -4.04 c1.2 0 1.24 0.92 1.24 1.76 z M166.636 14.48 c0 3.12 -5.44 3.92 -7.72 3.92 c-1.68 0 -3.48 -0.76 -3.48 -2.72 c0 -2.64 5.28 -3.72 7.32 -3.72 c1.6 0 3.88 0.52 3.88 2.52 z M181.142 25.08 l0 7.76 c0 0.72 -0.04 2.04 0.16 2.68 c0.44 1.44 2.24 0.76 2.24 2.44 c0 2.68 -4.88 2.48 -6.6 2.48 c-1.8 0 -7.4 0.2 -7.4 -2.64 c0 -1.4 1.72 -0.88 2.2 -2.36 c0.52 -1.64 0.52 -6.64 0.52 -8.6 c0 -1.56 0.08 -4.56 -0.28 -6.36 c-0.6 -2.96 -2.96 -1.92 -2.96 -4.2 c0 -3.48 10.4 -4.32 10.96 -4.32 c1.36 0 1.68 0.88 1.68 2.08 c0 0.92 -0.52 5.32 -0.52 11.04 z M194.128 31.4 c-1.36 0 -2.28 1.28 -2.28 2.56 c0 1.04 0.56 2.16 1.72 2.16 c1.52 0 1.64 -1.64 1.64 -2.84 c0 -0.88 0.04 -1.88 -1.08 -1.88 z M203.84799999999998 26.439999999999998 l0 4 c0 7.04 2.4 3.2 2.4 5.36 c0 2.28 -3.12 4.76 -6.04 4.76 c-3.16 0 -3.24 -2.04 -4.24 -2.04 c-0.48 0 -1 0.52 -1.88 1 c-0.88 0.52 -2.08 1.04 -3.92 1.04 c-3.32 0 -6.64 -1.76 -6.64 -5.72 c0 -2.84 2.72 -6.36 9.76 -6.36 c1.24 0 1.8 0.08 1.8 -1.36 c0 -1.32 -0.04 -4.08 -1.88 -4.08 c-2.4 0 -2.64 4.32 -6.2 4.32 c-1.28 0 -2.24 -0.92 -2.24 -2.2 c0 -3.4 6.76 -5.6 10.56 -5.6 c2.28 0 8.52 0.88 8.52 6.88 z"></path></g><g id="SvgjsG1538" featurekey="sloganFeature-0" transform="matrix(0.6670358369802419,0,0,0.6670358369802419,86.7817920366719,235.66482081509878)" fill="#fff"><path d="M11.465 5.888999999999999 l2.9199 0 l0 14.111 l-3.3887 0 l-6.25 -10.088 l0 10.088 l-2.9199 0 l0 -14.111 l3.3496 0 l6.2891 10.029 l0 -10.029 z M25.7466328125 14.834 l-0.029297 0.67383 l-7.4414 0 c0.11719 1.6699 1.2305 2.4707 2.5684 2.4707 c1.0059 0 1.7871 -0.46875 2.168 -1.3574 l2.5781 0.38086 c-0.66406 2.0313 -2.4707 3.1934 -4.7266 3.1934 c-3.2422 0 -5.3613 -1.9141 -5.3613 -5.2148 s2.1777 -5.2344 5.2734 -5.2344 c2.8418 0 4.9609 1.5723 4.9707 5.0879 z M20.7959328125 11.7383 c-1.2793 0 -2.168 0.5957 -2.4414 1.9336 l4.6094 0 c-0.14648 -1.2793 -1.0156 -1.9336 -2.168 -1.9336 z M25.146484375 20 l4.1211 -5.0293 l-4.1211 -5.0098 l3.5156 0 l2.3047 3.1641 l2.3242 -3.1641 l3.4863 0 l-4.1309 5.0195 l4.1309 5.0195 l-3.4863 0 l-2.3047 -3.1445 l-2.3145 3.1445 l-3.5254 0 z M40.6982296875 20 c-1.9531 0 -3.0664 -1.1328 -3.0664 -3.1348 l0 -4.7461 l-1.9727 0 l0 -2.1582 l0.63477 0 c1.0645 0 1.6504 -0.41016 1.6504 -1.9141 l0 -1.3281 l2.5391 0 l0 3.2422 l2.0703 0 l0 2.1582 l-2.0703 0 l0 4.4434 c0 0.89844 0.43945 1.2988 1.1621 1.2988 l0.9082 0 l0 2.1387 l-1.8555 0 z M50.5029703125 17.4121 l4.4238 0 l0 2.5879 l-7.3535 0 l0 -14.111 l2.9297 0 l0 11.523 z M64.872609375 14.834 l-0.029297 0.67383 l-7.4414 0 c0.11719 1.6699 1.2305 2.4707 2.5684 2.4707 c1.0059 0 1.7871 -0.46875 2.168 -1.3574 l2.5781 0.38086 c-0.66406 2.0313 -2.4707 3.1934 -4.7266 3.1934 c-3.2422 0 -5.3613 -1.9141 -5.3613 -5.2148 s2.1777 -5.2344 5.2734 -5.2344 c2.8418 0 4.9609 1.5723 4.9707 5.0879 z M59.921909375 11.7383 c-1.2793 0 -2.168 0.5957 -2.4414 1.9336 l4.6094 0 c-0.14648 -1.2793 -1.0156 -1.9336 -2.168 -1.9336 z M72.1826359375 9.961 l2.9785 0 l-4.2773 10.039 l-2.4414 0 l-4.2285 -10.039 l2.959 0 l2.5 6.8652 z M84.716359375 14.834 l-0.029297 0.67383 l-7.4414 0 c0.11719 1.6699 1.2305 2.4707 2.5684 2.4707 c1.0059 0 1.7871 -0.46875 2.168 -1.3574 l2.5781 0.38086 c-0.66406 2.0313 -2.4707 3.1934 -4.7266 3.1934 c-3.2422 0 -5.3613 -1.9141 -5.3613 -5.2148 s2.1777 -5.2344 5.2734 -5.2344 c2.8418 0 4.9609 1.5723 4.9707 5.0879 z M79.765659375 11.7383 c-1.2793 0 -2.168 0.5957 -2.4414 1.9336 l4.6094 0 c-0.14648 -1.2793 -1.0156 -1.9336 -2.168 -1.9336 z M85.4931859375 20 l0 -15 l2.8418 0 l0 15 l-2.8418 0 z M94.0869421875 20 l0 -14.111 l5.1074 0 c4.502 0 6.7285 2.832 6.7285 7.0508 c0 4.2285 -2.2266 7.0605 -6.7285 7.0605 l-5.1074 0 z M97.0166421875 17.4121 l2.0313 0 c2.5977 0 3.7891 -1.6211 3.7891 -4.4727 s-1.1914 -4.4727 -3.7891 -4.4727 l-2.0313 0 l0 8.9453 z M116.376515625 14.834 l-0.029297 0.67383 l-7.4414 0 c0.11719 1.6699 1.2305 2.4707 2.5684 2.4707 c1.0059 0 1.7871 -0.46875 2.168 -1.3574 l2.5781 0.38086 c-0.66406 2.0313 -2.4707 3.1934 -4.7266 3.1934 c-3.2422 0 -5.3613 -1.9141 -5.3613 -5.2148 s2.1777 -5.2344 5.2734 -5.2344 c2.8418 0 4.9609 1.5723 4.9707 5.0879 z M111.425815625 11.7383 c-1.2793 0 -2.168 0.5957 -2.4414 1.9336 l4.6094 0 c-0.14648 -1.2793 -1.0156 -1.9336 -2.168 -1.9336 z M123.6865421875 9.961 l2.9785 0 l-4.2773 10.039 l-2.4414 0 l-4.2285 -10.039 l2.959 0 l2.5 6.8652 z M136.220265625 14.834 l-0.029297 0.67383 l-7.4414 0 c0.11719 1.6699 1.2305 2.4707 2.5684 2.4707 c1.0059 0 1.7871 -0.46875 2.168 -1.3574 l2.5781 0.38086 c-0.66406 2.0313 -2.4707 3.1934 -4.7266 3.1934 c-3.2422 0 -5.3613 -1.9141 -5.3613 -5.2148 s2.1777 -5.2344 5.2734 -5.2344 c2.8418 0 4.9609 1.5723 4.9707 5.0879 z M131.269565625 11.7383 c-1.2793 0 -2.168 0.5957 -2.4414 1.9336 l4.6094 0 c-0.14648 -1.2793 -1.0156 -1.9336 -2.168 -1.9336 z M136.9970921875 20 l0 -15 l2.8418 0 l0 15 l-2.8418 0 z M146.064440625 20.19531 c-3.1934 0 -5.498 -1.9434 -5.498 -5.2246 c0 -3.2617 2.2852 -5.2051 5.498 -5.2051 c3.2324 0 5.5078 1.9434 5.5078 5.2051 c0 3.2813 -2.2852 5.2246 -5.5078 5.2246 z M146.035140625 17.959 c1.6309 0 2.7441 -1.1914 2.7441 -2.9883 s-1.1133 -2.9883 -2.7441 -2.9883 c-1.5723 0 -2.6758 1.1914 -2.6758 2.9883 s1.1035 2.9883 2.6758 2.9883 z M158.1885265625 9.766 c2.6465 0 4.834 1.9434 4.834 5.2344 s-2.1875 5.2344 -4.834 5.2344 c-1.3086 0 -2.4805 -0.50781 -3.0762 -1.4258 l0 6.0742 l-2.8125 0 l0 -14.922 l2.666 0 l0.078125 1.3477 c0.55664 -0.99609 1.7773 -1.543 3.1445 -1.543 z M157.5537265625 17.9004 c1.4746 0 2.6563 -1.0742 2.6563 -2.9004 s-1.1816 -2.9004 -2.6563 -2.9004 c-1.5039 0 -2.6758 1.1426 -2.6758 2.9004 s1.1719 2.9004 2.6758 2.9004 z M175.67421875 9.766 c2.1484 0 3.5352 1.0938 3.5352 3.1543 l0 7.0801 l-2.8125 0 l0 -6.2793 c0 -1.1816 -0.74219 -1.6992 -1.582 -1.6992 c-1.0059 0 -1.8945 0.57617 -1.8945 2.3145 l0 5.6641 l-2.8418 0 l0 -6.25 c0 -1.2012 -0.72266 -1.7285 -1.6113 -1.7285 c-0.97656 0 -1.8848 0.57617 -1.8848 2.4609 l0 5.5176 l-2.8027 0 l0 -10.039 l2.8027 0 l0 1.1816 c0.66406 -0.88867 1.6797 -1.377 2.9102 -1.377 c1.4551 0 2.5488 0.52734 3.0762 1.5039 c0.70313 -1.0059 1.7773 -1.5039 3.1055 -1.5039 z M190.0239765625 14.834 l-0.029297 0.67383 l-7.4414 0 c0.11719 1.6699 1.2305 2.4707 2.5684 2.4707 c1.0059 0 1.7871 -0.46875 2.168 -1.3574 l2.5781 0.38086 c-0.66406 2.0313 -2.4707 3.1934 -4.7266 3.1934 c-3.2422 0 -5.3613 -1.9141 -5.3613 -5.2148 s2.1777 -5.2344 5.2734 -5.2344 c2.8418 0 4.9609 1.5723 4.9707 5.0879 z M185.0732765625 11.7383 c-1.2793 0 -2.168 0.5957 -2.4414 1.9336 l4.6094 0 c-0.14648 -1.2793 -1.0156 -1.9336 -2.168 -1.9336 z M196.728503125 9.766 c2.4121 0 3.7402 1.25 3.7402 3.4766 l0 6.7578 l-2.8223 0 l0 -6.1523 c0 -1.3379 -0.83008 -1.8262 -1.7969 -1.8262 c-1.1621 0 -2.2168 0.58594 -2.2363 2.4414 l0 5.5371 l-2.8125 0 l0 -10.039 l2.8125 0 l0 1.1133 c0.70313 -0.83008 1.7871 -1.3086 3.1152 -1.3086 z M205.5712765625 20 c-1.9531 0 -3.0664 -1.1328 -3.0664 -3.1348 l0 -4.7461 l-1.9727 0 l0 -2.1582 l0.63477 0 c1.0645 0 1.6504 -0.41016 1.6504 -1.9141 l0 -1.3281 l2.5391 0 l0 3.2422 l2.0703 0 l0 2.1582 l-2.0703 0 l0 4.4434 c0 0.89844 0.43945 1.2988 1.1621 1.2988 l0.9082 0 l0 2.1387 l-1.8555 0 z"></path></g></svg>