<svg xmlns="http://www.w3.org/2000/svg" viewBox="0 0 259.41998291015625 161.4000005722046" preserveAspectRatio="xMidYMid meet" class="css-5yjtbz" id="eedfdcec"><defs id="SvgjsDefs2179"></defs><g id="SvgjsG2180" featurekey="symbolFeature-0" transform="matrix(1.1216491062414922,0,0,1.1216491062414922,74.0839506930337,-22.23525030826267)" fill="#111"><path xmlns="http://www.w3.org/2000/svg" d="M35.6655731,24.5674229c-0.5362358-0.7641201-1.311264-1.3222313-2.1146049-1.7764168  c-0.5271149-0.2979965-1.1776199-0.4386425-1.7694111-0.6429348c-0.1081886-0.2712326-0.308712-0.5128536-0.5374279-0.6524563  c-0.7747288-0.4728432-1.545105-0.2223835-2.0459938,0.4841824c-0.137516,0.1940098-0.2012978,0.3875427-0.2117882,0.5757408  c-1.4999237,0.7436295-2.8610783,2.545393-3.8173733,3.5205688c-2.1235447,2.1654491-4.1419392,4.4321423-6.1711235,6.6852303  C14.9423428,37.2643242,10.81602,41.7815857,5.87533,45.3374901c-0.548038,0.394413-0.7855773,1.0469437-0.4379416,1.6702499  c4.6078377,8.2616005,8.195838,17.030262,10.7074919,26.1503105c0.1345348,0.4884567,0.6429348,0.9439392,1.1772022,0.8962555  c2.2221375-0.19841,4.428299-0.1236267,6.6238499,0.2820969c0.2648392,0.0489349,0.5384407,0.0150909,0.7813454-0.0825119  c0.3118095,0.2562408,0.6121159,0.5266342,0.905508,0.8130569c0.9154053,0.893837,2.2731018-0.0194321,2.0403919-1.1877594  c-1.6050129-8.0575027-3.0581436-16.1440926-4.36273-24.2555389c0.0057831-0.0275993,0.0122795-0.0544205,0.0166321-0.0835686  c0.0612164-0.4125671,0.0609779-0.7702446-0.0403557-1.099102c2.6796894-4.4922447,5.5856514-8.8417091,8.7160378-13.0335121  c1.6163979-2.1645241,3.8509331-4.277504,4.9157143-6.7833157C37.6088028,26.9996033,37.0985527,25.1390495,35.6655731,24.5674229z   M20.873127,49.7574997c1.0433826,6.5200729,2.184166,13.0238533,3.4216919,19.5096512  c-1.3569221-4.1990433-2.7137852-8.3981056-4.0707073-12.5971489c-0.8100166-2.5064545-1.619915-5.0129356-2.4298115-7.5193863  C18.8257618,49.3258171,19.8514996,49.528904,20.873127,49.7574997z M27.7649746,37.0914917  c-2.3628731,3.3097458-4.5722523,6.7276115-6.6510906,10.2223244c-0.9371014-0.2030258-1.877779-0.3850403-2.8233452-0.5431519  c0.4863434-0.4994278,0.9727478-0.9988403,1.4590912-1.4982681c1.0199566-1.0473785,2.0399132-2.094738,3.0598698-3.1421165  c1.6829796-1.7281609,3.3699532-3.4526863,5.0559731-5.1781387C27.8321514,36.9987259,27.7982349,37.0448761,27.7649746,37.0914917z   M33.2343292,27.9229946c-4.1145191,4.5283794-8.5621891,8.795393-12.8312149,13.1790867l-3.0599289,3.1421318  c-0.8483448,0.8711433-2.2382908,1.8801498-2.3568516,3.1912041c-0.1182632,1.3080711,0.5475616,2.654995,0.9433002,3.8796158  c0.4974308,1.539505,0.9949207,3.0789909,1.4924126,4.6184959c1.6957951,5.2478638,3.3916492,10.4957161,5.0874462,15.7435951  c-1.4220161-0.1565399-2.8479042-0.2052612-4.2826157-0.1286926c-2.4513903-8.6206207-5.8618765-16.9488792-10.1564732-24.8151703  c4.0388174-3.0556679,7.5772829-6.667347,10.9890804-10.4057541c1.8591824-2.037159,3.6860561-4.1034775,5.5593052-6.1278648  c0.9354324-1.0109119,1.887495-2.006115,2.8560104-2.9853897c0.2696686-0.2727222,2.5101051-2.6885853,2.6925659-2.5881615  c0.4768066,0.2624397,0.9356709,0.1823578,1.2754364-0.0659409c0.6865082,0.263916,1.4010353,0.6044865,1.8701515,1.0430107  c0.0462532,0.3488865,0.2313995,0.6975212,0.5222282,0.9289646C33.8783951,26.9365673,33.7119713,27.3973541,33.2343292,27.9229946z  "></path><path xmlns="http://www.w3.org/2000/svg" d="M73.0252914,24.1311798c-0.6276169-0.4312363-1.2552338-0.8624725-1.8829117-1.2937088  c-0.0929871-0.5477257-0.5929794-0.9884243-1.2097473-1.0443363c-4.2216339-0.3827305-8.4041672-1.0326843-12.5454521-1.9368515  c-1.2399712-0.2707253-1.9032326,1.2132664-1.3014259,1.9705143c-2.2785873,5.0727673-5.022831,9.9094715-7.7659454,14.741333  c-2.7845383,4.904789-5.4719772,9.8573112-7.9844055,14.907608c-4.9976158,10.0457039-9.3445492,20.4179764-13.0539722,31.0061722  c-0.2210865,0.6311188,0.2454662,1.3307419,0.8526363,1.5017014c1.5013542,0.4227524,2.9986534,0.8669968,4.5078735,1.2606201  c0.1834145,0.0478363,0.3654022,0.0793533,0.545475,0.0980148c0.0067978,0.19133,0.0699806,0.3941574,0.2056503,0.5993271  c1.400795,2.1182251,4.0199814,1.6098175,5.6094933,0.0168839c0.9328728-0.9349213,1.6224213-2.1872025,2.3382568-3.2854996  c0.9165344-1.4062958,1.7970085-2.8363876,2.6824875-4.2623596c3.5347137-5.6926193,6.9777451-11.4420624,10.339592-17.2384148  c6.72369-11.5928841,13.0861549-23.3946457,19.1003304-35.3707504C73.7789764,25.172699,73.6002655,24.526247,73.0252914,24.1311798  z M30.0339622,82.0084305c3.6057625-10.1477661,7.815834-20.0664368,12.6131096-29.7093964  c4.9545784-9.9592285,11.1299934-19.318428,15.6587296-29.4832153c0.0386887-0.0869236,0.0669403-0.1731472,0.0862541-0.2581482  c3.1562576,0.6362133,6.3387413,1.1253586,9.5393486,1.4749603C61.97612,34.3121643,56.0208397,44.591671,50.0654984,54.8712044  c-3.1761665,5.4825287-6.3523941,10.9650612-9.5286217,16.4475899l-4.64217,8.0129089  c-0.4072456,0.7029037-0.8144302,1.4057922-1.221611,2.1086731c-0.2997131,0.5173416-0.6168289,1.5799484-1.3820801,1.4495239  C32.2032852,82.7045364,31.1111431,82.3485107,30.0339622,82.0084305z M54.3528214,56.2929344  c-3.0122452,5.2784157-6.1020393,10.5124702-9.257164,15.7066917c-1.5318718,2.521843-3.0818672,5.0327835-4.6485481,7.5331573  c-0.4161263,0.6640778-3.8736458,6.7977829-4.945816,5.1764984c-0.0179443-0.027153-0.0371971-0.0515594-0.0562134-0.0765533  c0.1124802-0.1017532,0.2198372-0.213829,0.3208733-0.3372498c0.9018707-1.1013184,1.5252571-2.5029907,2.2369766-3.7314606  l2.6875572-4.6390762c3.339077-5.7636795,6.678215-11.5273666,10.0172882-17.2910423  c6.4757233-11.1779022,12.9515038-22.355793,19.427227-33.5336838c0.2352142,0.1615982,0.4704285,0.323225,0.7056427,0.4848232  C65.6084671,35.9604073,60.1122894,46.2005844,54.3528214,56.2929344z"></path><path xmlns="http://www.w3.org/2000/svg" d="M94.0749283,62.7201805c-0.633812-1.8909988-1.2395477-3.7884178-1.7939072-5.7043915  c-1.0656738-3.6828194-1.9334564-7.4214973-2.6422577-11.188694c-0.3403015-1.8084679-0.6285706-3.6263885-0.8853607-5.4484482  c-0.2455826-1.7428246-0.2433167-3.5931702-1.0102386-5.2050095c-0.6251144-1.3138542-2.2631454-1.9417381-3.5037766-2.4656181  c-1.7526016-0.7400818-3.5696411-1.2486744-5.4455719-1.5586834c-2.1939392-0.3625526-6.5610199-0.907402-6.6951981,2.4003811  c-0.0043488,0.1080093,0.0040512,0.2078667,0.021637,0.3010063c-0.0783844,0.1643982-0.1230927,0.3416595-0.1137924,0.5148659  c0.2324142,4.3325539,0.8097763,8.6361351,1.7229156,12.8776665c0.4766312,2.2136688,1.0693741,4.4011726,1.737999,6.5640907  c0.6612396,2.1391449,1.5665665,4.1929321,2.2404404,6.3225594c0.2446289,0.7732201-1.1569366,2.1225739-1.5662079,2.6794624  c-0.6377487,0.8677025-1.2831879,1.7297173-1.9316635,2.5894279c-1.4195709,1.8820114-2.8715744,3.7391968-4.344017,5.5801239  c-2.8826523,3.6041718-5.8705177,7.1236343-8.9407616,10.5691528c-0.5859489,0.6575699-0.4001503,1.8125381,0.538681,2.0403976  c2.3294907,0.5653992,4.6590385,1.1307983,6.9885292,1.6961823c0.4060516,0.0985413,0.8984756,0.0139923,1.1877594-0.313942  c0.0500717-0.0567474,0.1013336-0.1123962,0.1514587-0.1691132c2.3320541,1.0704193,4.8834076-0.2484131,6.8041077-1.9393692  c2.9993668-2.6406479,5.8748703-5.4370041,8.8062897-8.1530533c1.4311905-1.3260269,2.8623886-2.6520615,4.2935791-3.9780884  c1.3315887-1.2337723,2.9937668-2.4235687,4.0333328-3.9271622C94.6319733,65.4978104,94.5630646,64.1766052,94.0749283,62.7201805z   M71.8806915,72.3449478c1.4102097-1.7631531,2.7929459-3.5483017,4.1589279-5.3459091  c0.7445679-0.9798813,1.4795914-1.9670258,2.2102127-2.9573746c0.5997772-0.8130531,1.5289536-1.7448654,1.7854462-2.750843  c0.5039902-1.9766693-0.8693848-4.1506004-1.506958-5.9816017c-0.79422-2.281044-1.4605179-4.6052437-2.037529-6.9500694  c-1.064003-4.324131-1.7072983-8.7380028-1.9901962-13.1796112c0.2269821-0.1326714,0.4391327-0.2948341,0.6438828-0.4859848  c0.2452316,0.150898,0.5591888,0.202549,0.9250031,0.0853157c2.3294907-0.7466545,3.7989578,1.6152496,4.4109497,3.4964409  c0.7901688,2.4289474,1.1737518,5.0288048,1.7781754,7.5102844c1.2360382,5.0743752,2.6758194,10.0982475,4.2819595,15.0675049  c0.3553238,1.0994759,0.9620209,2.1350212,0.0468521,3.0848923c-0.8331451,0.8646812-1.7487259,1.6618614-2.6135788,2.4953346  c-1.8978729,1.8289337-3.7659378,3.6885605-5.6126556,5.5690384c-3.2965164,3.3568649-6.4983749,6.8058167-9.6243515,10.3218536  c-0.1254196,0.1000214-0.2331848,0.2195358-0.3154449,0.3518677c-0.021698,0.0245285-0.0438766,0.0486984-0.0656281,0.0732422  c-1.4401398-0.3495407-2.8803329-0.6990662-4.3204727-1.0486069C66.7195663,78.6406403,69.3379211,75.5241394,71.8806915,72.3449478  z M91.3438034,65.8593445c-2.1367798,2.2964706-4.6513519,4.3281555-6.952652,6.4603729  c-2.3852844,2.2100525-4.7706299,4.4201202-7.1559677,6.6301651c-1.1715469,1.0855026-3.6168518,4.0295486-5.6798325,3.8822327  c3.3003311-3.6686249,6.6863708-7.2585144,10.1670761-10.7572784c2.0775909-2.0883484,4.1923141-4.1395569,6.3332062-6.1628876  c0.7399139-0.6993103,1.4602814-1.5545807,1.5012894-2.6263695c0.0526962-1.3788147-0.539093-2.6949348-0.9530182-3.9853935  c-1.8368835-5.7267303-3.4110184-11.5365372-4.7557831-17.3978615c-0.5755157-2.5083771-0.9097443-5.3220482-2.5602341-7.4025116  c-0.092392-0.1164322-0.1891937-0.2291069-0.2890396-0.3388443c0.2986984,0.0744209,0.5194244,0.1336403,0.6212921,0.1652641  c1.2545166,0.3894501,2.7828751,0.8683434,3.7805405,1.7622871c0.8959122,0.8028221,0.7469482,3.0661316,0.892334,4.158886  c0.8039322,6.0400734,2.0679321,12.0065918,3.7615204,17.8593483c0.3836365,1.3257484,0.7976761,2.6425095,1.226799,3.9541435  C91.7368011,63.4529762,92.4787979,64.6395187,91.3438034,65.8593445z"></path></g><g id="SvgjsG2181" featurekey="nameFeature-0" transform="matrix(1.0036130129722678,0,0,1.0036130129722678,27.95262997038135,85.16098022559547)" fill="#111"><path d="M2.04 40 l0 -21.64 l7.6 0 l0 4.36 c1.24 -2.96 3.24 -4.88 6.84 -4.72 l0 8 l-0.64 0 c-3.96 0 -6.2 2.28 -6.2 7.28 l0 6.72 l-7.6 0 z M29.480000000000004 40.52 c-6.8 0 -11.6 -4.52 -11.6 -11.24 l0 -0.08 c0 -6.32 4.52 -11.32 10.92 -11.32 c7.48 0 10.92 5.48 10.92 11.84 c0 0.48 0 1.04 -0.04 1.56 l-14.48 0 c0.6 2.36 2.32 3.56 4.68 3.56 c1.8 0 3.24 -0.68 4.8 -2.2 l4.2 3.48 c-2.08 2.64 -5.08 4.4 -9.4 4.4 z M25.080000000000002 27.4 l7.52 0 c-0.28 -2.4 -1.68 -3.92 -3.76 -3.92 c-2 0 -3.36 1.56 -3.76 3.92 z M53.400000000000006 40.52 c-6.52 0 -11.32 -5.12 -11.32 -11.24 l0 -0.08 c0 -6.12 4.76 -11.28 11.6 -11.28 c4.44 0 7.4 1.92 9.24 4.84 l-5.16 3.84 c-1.04 -1.44 -2.2 -2.28 -4.04 -2.28 c-2.44 0 -4.24 2.16 -4.24 4.8 l0 0.08 c0 2.8 1.76 4.92 4.32 4.92 c1.8 0 2.96 -0.84 4.16 -2.24 l5.08 3.68 c-2 2.96 -4.88 4.96 -9.64 4.96 z M76.16000000000001 40.52 c-6.92 0 -11.92 -5.08 -11.92 -11.24 l0 -0.08 c0 -6.16 5.04 -11.32 12 -11.32 c6.92 0 11.92 5.08 11.92 11.24 l0 0.08 c0 6.16 -5.04 11.32 -12 11.32 z M76.24000000000001 34.08 c2.76 0 4.52 -2.2 4.52 -4.8 l0 -0.08 c0 -2.64 -1.92 -4.88 -4.6 -4.88 c-2.76 0 -4.52 2.2 -4.52 4.8 l0 0.08 c0 2.64 1.92 4.88 4.6 4.88 z M91.36000000000001 40 l0 -21.64 l7.6 0 l0 2.96 c1.4 -1.8 3.4 -3.44 6.44 -3.44 c2.88 0 5.08 1.28 6.24 3.52 c1.88 -2.16 4.08 -3.52 7.24 -3.52 c4.6 0 7.4 2.88 7.4 7.92 l0 14.2 l-7.6 0 l0 -11.76 c0 -2.36 -1.16 -3.6 -2.96 -3.6 s-3.12 1.24 -3.12 3.6 l0 11.76 l-7.6 0 l0 -11.76 c0 -2.36 -1.16 -3.6 -2.96 -3.6 s-3.08 1.24 -3.08 3.6 l0 11.76 l-7.6 0 z M130.20000000000002 46.4 l0 -28.04 l7.6 0 l0 2.88 c1.48 -1.8 3.32 -3.36 6.56 -3.36 c5.16 0 9.6 4.28 9.6 11.2 l0 0.08 c0 7.04 -4.44 11.32 -9.56 11.32 c-3.28 0 -5.2 -1.48 -6.6 -3.12 l0 9.04 l-7.6 0 z M142.04000000000002 34.12 c2.48 0 4.44 -2 4.44 -4.92 l0 -0.08 c0 -2.84 -1.96 -4.88 -4.44 -4.88 c-2.44 0 -4.4 2.04 -4.4 4.88 l0 0.08 c0 2.88 1.96 4.92 4.4 4.92 z M157.24 16.4 l0 -5.6 l7.92 0 l0 5.6 l-7.92 0 z M157.4 40 l0 -21.64 l7.6 0 l0 21.64 l-7.6 0 z M169.4 40 l0 -29.2 l7.6 0 l0 29.2 l-7.6 0 z M187.44000000000003 40.48 c-4.12 0 -7.28 -2.36 -7.28 -6.68 l0 -0.08 c0 -4.48 3.4 -6.8 8.48 -6.8 c2 0 3.96 0.4 5.2 0.84 l0 -0.36 c0 -2.24 -1.4 -3.52 -4.32 -3.52 c-2.28 0 -4.04 0.44 -5.96 1.2 l-1.56 -5.36 c2.44 -1 5.04 -1.68 8.76 -1.68 c3.88 0 6.52 0.92 8.24 2.64 c1.64 1.6 2.32 3.84 2.32 6.88 l0 12.44 l-7.52 0 l0 -2.24 c-1.48 1.64 -3.52 2.72 -6.36 2.72 z M190.16000000000003 35.72 c2.2 0 3.76 -1.4 3.76 -3.56 l0 -1 c-0.76 -0.32 -1.84 -0.56 -2.96 -0.56 c-2.2 0 -3.48 1.08 -3.48 2.68 l0 0.08 c0 1.48 1.12 2.36 2.68 2.36 z"></path></g><g id="SvgjsG2182" featurekey="sloganFeature-0" transform="matrix(1,0,0,1,-1.700000524520874,141.19999980926514)" fill="#111"><path d="M11.3 6 l1.8 0 l0 14.2 l-0.22 0 l-9.4 -9.98 l0 9.78 l-1.78 0 l0 -14.2 l0.2 0 l9.4 9.98 l0 -9.78 z M24.880000000000003 18.28 l0.12 1.72 l-8.52 0 l0 -14 l8.12 0 l0.14 1.72 l-6.46 0 l0 3.42 l4.38 0 l0 1.72 l-4.38 0 l0 5.42 l6.6 0 z M37.18 20 l-2.1 0 l-3.24 -5.32 l-3.26 5.32 l-2.12 0 l4.32 -7.04 l-4.26 -6.96 l2.1 0 l3.2 5.24 l3.22 -5.24 l2.1 0 l-4.26 6.96 z M48.2 7.720000000000001 l-4.08 0 l0 12.28 l-1.8 0 l0 -12.28 l-4.1 0 l0.12 -1.72 l9.74 0 z M59.02000000000001 18.28 l5.92 0 l-0.12 1.72 l-7.6 0 l0 -14 l1.8 0 l0 12.28 z M75.52000000000001 18.28 l0.12 1.72 l-8.52 0 l0 -14 l8.12 0 l0.14 1.72 l-6.46 0 l0 3.42 l4.38 0 l0 1.72 l-4.38 0 l0 5.42 l6.6 0 z M77.04000000000002 6 l1.96 0 l4.24 10.24 l4.26 -10.24 l1.96 0 l-6.1 14.2 l-0.22 0 z M100.06000000000002 18.28 l0.12 1.72 l-8.52 0 l0 -14 l8.12 0 l0.14 1.72 l-6.46 0 l0 3.42 l4.38 0 l0 1.72 l-4.38 0 l0 5.42 l6.6 0 z M104.58000000000003 18.28 l5.92 0 l-0.12 1.72 l-7.6 0 l0 -14 l1.8 0 l0 12.28 z M124.32000000000004 6 c4.64 0 7.2 2.84 7.2 7 s-2.56 7 -7.2 7 l-4.8 0 l0 -14 l4.8 0 z M124.42000000000003 18.28 c3.4 0 5.3 -2.12 5.3 -5.28 c0 -3.18 -1.9 -5.28 -5.3 -5.28 l-3.1 0 l0 10.56 l3.1 0 z M142.76000000000002 18.28 l0.12 1.72 l-8.52 0 l0 -14 l8.12 0 l0.14 1.72 l-6.46 0 l0 3.42 l4.38 0 l0 1.72 l-4.38 0 l0 5.42 l6.6 0 z M144.28000000000003 6 l1.96 0 l4.24 10.24 l4.26 -10.24 l1.96 0 l-6.1 14.2 l-0.22 0 z M167.3 18.28 l0.12 1.72 l-8.52 0 l0 -14 l8.12 0 l0.14 1.72 l-6.46 0 l0 3.42 l4.38 0 l0 1.72 l-4.38 0 l0 5.42 l6.6 0 z M171.82000000000002 18.28 l5.92 0 l-0.12 1.72 l-7.6 0 l0 -14 l1.8 0 l0 12.28 z M186.54000000000002 20.2 c-4 0 -7.18 -3.2 -7.18 -7.2 s3.18 -7.2 7.18 -7.2 s7.18 3.2 7.18 7.2 s-3.18 7.2 -7.18 7.2 z M186.54000000000002 18.48 c3.04 0 5.32 -2.38 5.32 -5.48 s-2.28 -5.48 -5.32 -5.48 c-3.06 0 -5.34 2.38 -5.34 5.48 s2.28 5.48 5.34 5.48 z M201.86 6 c3.28 0 4.82 2.48 4.82 5.1 s-1.54 5.1 -4.82 5.1 l-3.5 0 l0 3.8 l-1.8 0 l0 -14 l5.3 0 z M201.78 14.48 c1.84 0 3.06 -1.42 3.06 -3.38 s-1.22 -3.38 -3.06 -3.38 l-3.42 0 l0 6.76 l3.42 0 z M222.88000000000002 5.800000000000001 l0.22 0 l0 14.2 l-1.78 0 l0 -9.42 l-4.96 6.48 l-0.12 0 l-4.96 -6.46 l0 9.4 l-1.78 0 l0 -14.2 l0.2 0 l6.6 8.4 z M234.88 18.28 l0.12 1.72 l-8.52 0 l0 -14 l8.12 0 l0.14 1.72 l-6.46 0 l0 3.42 l4.38 0 l0 1.72 l-4.38 0 l0 5.42 l6.6 0 z M247.20000000000002 6 l1.8 0 l0 14.2 l-0.22 0 l-9.4 -9.98 l0 9.78 l-1.78 0 l0 -14.2 l0.2 0 l9.4 9.98 l0 -9.78 z M261.12 7.720000000000001 l-4.08 0 l0 12.28 l-1.8 0 l0 -12.28 l-4.1 0 l0.12 -1.72 l9.74 0 z"></path></g></svg>